<?xml version="1.0" encoding="UTF-8" standalone="no"?>
<!DOCTYPE svg PUBLIC "-//W3C//DTD SVG 1.1//EN"
 "http://www.w3.org/Graphics/SVG/1.1/DTD/svg11.dtd">
<!-- Generated by graphviz version 2.36.0 (20140111.2315)
 -->
<!-- Title: parallel_rng::ParallelRngManagerError Pages: 1 -->
<svg width="171pt" height="172pt"
 viewBox="0.00 0.00 171.00 172.00" xmlns="http://www.w3.org/2000/svg" xmlns:xlink="http://www.w3.org/1999/xlink">
<g id="graph0" class="graph" transform="scale(1 1) rotate(0) translate(4 168)">
<title>parallel_rng::ParallelRngManagerError</title>
<polygon fill="white" stroke="none" points="-4,4 -4,-168 167,-168 167,4 -4,4"/>
<!-- Node1 -->
<g id="node1" class="node"><title>Node1</title>
<polygon fill="#bfbfbf" stroke="black" points="5.5,-1 5.5,-29 124.5,-29 124.5,-1 5.5,-1"/>
<text text-anchor="start" x="13.5" y="-17.8" font-family="Helvetica,sans-Serif" font-size="9.00">parallel_rng::ParallelRng</text>
<text text-anchor="middle" x="65" y="-7.8" font-family="Helvetica,sans-Serif" font-size="9.00">ManagerError</text>
</g>
<!-- Node2 -->
<g id="node2" class="node"><title>Node2</title>
<g id="a_node2"><a xlink:title="STL class. ">
<polygon fill="white" stroke="#bfbfbf" points="-0.5,-77 -0.5,-95 72.5,-95 72.5,-77 -0.5,-77"/>
<text text-anchor="middle" x="36" y="-83.8" font-family="Helvetica,sans-Serif" font-size="9.00">std::exception</text>
</a>
</g>
</g>
<!-- Node2&#45;&gt;Node1 -->
<g id="edge1" class="edge"><title>Node2&#45;&gt;Node1</title>
<path fill="none" stroke="midnightblue" d="M43.3706,-67.463C48.386,-55.5298 54.9164,-39.992 59.484,-29.1243"/>
<polygon fill="midnightblue" stroke="midnightblue" points="40.0886,-66.2388 39.4406,-76.8138 46.5418,-68.9511 40.0886,-66.2388"/>
</g>
<!-- Node3 -->
<g id="node3" class="node"><title>Node3</title>
<g id="a_node3"><a xlink:title="STL class. ">
<polygon fill="white" stroke="#bfbfbf" points="91,-77 91,-95 147,-95 147,-77 91,-77"/>
<text text-anchor="middle" x="119" y="-83.8" font-family="Helvetica,sans-Serif" font-size="9.00">std::string</text>
</a>
</g>
</g>
<!-- Node3&#45;&gt;Node1 -->
<g id="edge2" class="edge"><title>Node3&#45;&gt;Node1</title>
<path fill="none" stroke="#9a32cd" stroke-dasharray="5,2" d="M106.393,-68.8912C96.925,-56.793 84.12,-40.4311 75.2712,-29.1243"/>
<polygon fill="#9a32cd" stroke="#9a32cd" points="103.674,-71.0959 112.593,-76.8138 109.187,-66.7817 103.674,-71.0959"/>
<text text-anchor="middle" x="110" y="-50.8" font-family="Helvetica,sans-Serif" font-size="9.00"> _what</text>
</g>
<!-- Node4 -->
<g id="node4" class="node"><title>Node4</title>
<g id="a_node4"><a xlink:title="STL class. ">
<polygon fill="white" stroke="#bfbfbf" points="75,-135 75,-163 163,-163 163,-135 75,-135"/>
<text text-anchor="start" x="83" y="-151.8" font-family="Helvetica,sans-Serif" font-size="9.00">std::basic_string&lt;</text>
<text text-anchor="middle" x="119" y="-141.8" font-family="Helvetica,sans-Serif" font-size="9.00"> char &gt;</text>
</a>
</g>
</g>
<!-- Node4&#45;&gt;Node3 -->
<g id="edge3" class="edge"><title>Node4&#45;&gt;Node3</title>
<path fill="none" stroke="midnightblue" d="M119,-124.588C119,-114.213 119,-102.68 119,-95.1595"/>
<polygon fill="midnightblue" stroke="midnightblue" points="115.5,-124.764 119,-134.764 122.5,-124.764 115.5,-124.764"/>
</g>
</g>
</svg>
