<?xml version="1.0" encoding="UTF-8" standalone="no"?>
<!DOCTYPE svg PUBLIC "-//W3C//DTD SVG 1.1//EN"
 "http://www.w3.org/Graphics/SVG/1.1/DTD/svg11.dtd">
<!-- Generated by graphviz version 2.38.0 (20140413.2041)
 -->
<!-- Title: parallel_rng::ParallelRngManager::reset Pages: 1 -->
<svg width="282pt" height="84pt"
 viewBox="0.00 0.00 282.00 84.00" xmlns="http://www.w3.org/2000/svg" xmlns:xlink="http://www.w3.org/1999/xlink">
<g id="graph0" class="graph" transform="scale(1 1) rotate(0) translate(4 80)">
<title>parallel_rng::ParallelRngManager::reset</title>
<polygon fill="white" stroke="none" points="-4,4 -4,-80 278,-80 278,4 -4,4"/>
<!-- Node1 -->
<g id="node1" class="node"><title>Node1</title>
<polygon fill="#bfbfbf" stroke="black" points="0,-23.5 0,-51.5 119,-51.5 119,-23.5 0,-23.5"/>
<text text-anchor="start" x="8" y="-40.3" font-family="Helvetica,sans-Serif" font-size="9.00">parallel_rng::ParallelRng</text>
<text text-anchor="middle" x="59.5" y="-30.3" font-family="Helvetica,sans-Serif" font-size="9.00">Manager::reset</text>
</g>
<!-- Node2 -->
<g id="node2" class="node"><title>Node2</title>
<g id="a_node2"><a xlink:href="classparallel__rng_1_1ParallelRngManager.html#a62a8227d353a02dbaa52836520cde365" target="_top" xlink:title="parallel_rng::ParallelRng\lManager::reset">
<polygon fill="white" stroke="black" points="155,-47.5 155,-75.5 274,-75.5 274,-47.5 155,-47.5"/>
<text text-anchor="start" x="163" y="-64.3" font-family="Helvetica,sans-Serif" font-size="9.00">parallel_rng::ParallelRng</text>
<text text-anchor="middle" x="214.5" y="-54.3" font-family="Helvetica,sans-Serif" font-size="9.00">Manager::reset</text>
</a>
</g>
</g>
<!-- Node1&#45;&gt;Node2 -->
<g id="edge1" class="edge"><title>Node1&#45;&gt;Node2</title>
<path fill="none" stroke="midnightblue" d="M129.213,-48.2785C137.803,-49.626 146.525,-50.9942 154.941,-52.3143"/>
<polygon fill="midnightblue" stroke="midnightblue" points="129.638,-44.8024 119.216,-46.7104 128.553,-51.7179 129.638,-44.8024"/>
</g>
<!-- Node3 -->
<g id="node3" class="node"><title>Node3</title>
<g id="a_node3"><a xlink:href="classparallel__rng_1_1ParallelRngManager.html#a27fce29ff0415e0652d1cad60c3caea6" target="_top" xlink:title="parallel_rng::ParallelRng\lManager::seed">
<polygon fill="white" stroke="black" points="155,-0.5 155,-28.5 274,-28.5 274,-0.5 155,-0.5"/>
<text text-anchor="start" x="163" y="-17.3" font-family="Helvetica,sans-Serif" font-size="9.00">parallel_rng::ParallelRng</text>
<text text-anchor="middle" x="214.5" y="-7.3" font-family="Helvetica,sans-Serif" font-size="9.00">Manager::seed</text>
</a>
</g>
</g>
<!-- Node1&#45;&gt;Node3 -->
<g id="edge2" class="edge"><title>Node1&#45;&gt;Node3</title>
<path fill="none" stroke="midnightblue" d="M129.213,-27.1706C137.803,-25.8793 146.525,-24.5681 154.941,-23.303"/>
<polygon fill="midnightblue" stroke="midnightblue" points="128.585,-23.7256 119.216,-28.6734 129.625,-30.6478 128.585,-23.7256"/>
</g>
</g>
</svg>
