<?xml version="1.0" encoding="UTF-8" standalone="no"?>
<!DOCTYPE svg PUBLIC "-//W3C//DTD SVG 1.1//EN"
 "http://www.w3.org/Graphics/SVG/1.1/DTD/svg11.dtd">
<!-- Generated by graphviz version 2.38.0 (20140413.2041)
 -->
<!-- Title: parallel_rng::ParallelRngManagerError Pages: 1 -->
<svg width="172pt" height="168pt"
 viewBox="0.00 0.00 171.50 168.00" xmlns="http://www.w3.org/2000/svg" xmlns:xlink="http://www.w3.org/1999/xlink">
<g id="graph0" class="graph" transform="scale(1 1) rotate(0) translate(4 164)">
<title>parallel_rng::ParallelRngManagerError</title>
<polygon fill="white" stroke="none" points="-4,4 -4,-164 167.5,-164 167.5,4 -4,4"/>
<!-- Node1 -->
<g id="node1" class="node"><title>Node1</title>
<polygon fill="#bfbfbf" stroke="black" points="6,-0.5 6,-28.5 125,-28.5 125,-0.5 6,-0.5"/>
<text text-anchor="start" x="14" y="-17.3" font-family="Helvetica,sans-Serif" font-size="9.00">parallel_rng::ParallelRng</text>
<text text-anchor="middle" x="65.5" y="-7.3" font-family="Helvetica,sans-Serif" font-size="9.00">ManagerError</text>
</g>
<!-- Node2 -->
<g id="node2" class="node"><title>Node2</title>
<g id="a_node2"><a xlink:title="STL class. ">
<polygon fill="white" stroke="#bfbfbf" points="0,-75.5 0,-93.5 73,-93.5 73,-75.5 0,-75.5"/>
<text text-anchor="middle" x="36.5" y="-82.3" font-family="Helvetica,sans-Serif" font-size="9.00">std::exception</text>
</a>
</g>
</g>
<!-- Node2&#45;&gt;Node1 -->
<g id="edge1" class="edge"><title>Node2&#45;&gt;Node1</title>
<path fill="none" stroke="midnightblue" d="M43.9953,-65.9248C48.9543,-54.2967 55.3522,-39.2949 59.8763,-28.6867"/>
<polygon fill="midnightblue" stroke="midnightblue" points="40.644,-64.861 39.9406,-75.4325 47.0829,-67.6071 40.644,-64.861"/>
</g>
<!-- Node3 -->
<g id="node3" class="node"><title>Node3</title>
<g id="a_node3"><a xlink:title="STL class. ">
<polygon fill="white" stroke="#bfbfbf" points="91.5,-75.5 91.5,-93.5 147.5,-93.5 147.5,-75.5 91.5,-75.5"/>
<text text-anchor="middle" x="119.5" y="-82.3" font-family="Helvetica,sans-Serif" font-size="9.00">std::string</text>
</a>
</g>
</g>
<!-- Node3&#45;&gt;Node1 -->
<g id="edge2" class="edge"><title>Node3&#45;&gt;Node1</title>
<path fill="none" stroke="#9a32cd" stroke-dasharray="5,2" d="M106.66,-67.3313C97.2875,-55.5287 84.7398,-39.7279 75.9718,-28.6867"/>
<polygon fill="#9a32cd" stroke="#9a32cd" points="104.134,-69.7779 113.093,-75.4325 109.615,-65.4247 104.134,-69.7779"/>
<text text-anchor="middle" x="110.5" y="-49.8" font-family="Helvetica,sans-Serif" font-size="9.00"> _what</text>
</g>
<!-- Node4 -->
<g id="node4" class="node"><title>Node4</title>
<g id="a_node4"><a xlink:title="STL class. ">
<polygon fill="white" stroke="#bfbfbf" points="75.5,-131.5 75.5,-159.5 163.5,-159.5 163.5,-131.5 75.5,-131.5"/>
<text text-anchor="start" x="83.5" y="-148.3" font-family="Helvetica,sans-Serif" font-size="9.00">std::basic_string&lt;</text>
<text text-anchor="middle" x="119.5" y="-138.3" font-family="Helvetica,sans-Serif" font-size="9.00"> char &gt;</text>
</a>
</g>
</g>
<!-- Node4&#45;&gt;Node3 -->
<g id="edge3" class="edge"><title>Node4&#45;&gt;Node3</title>
<path fill="none" stroke="midnightblue" d="M119.5,-121.386C119.5,-111.594 119.5,-100.816 119.5,-93.6534"/>
<polygon fill="midnightblue" stroke="midnightblue" points="116,-121.406 119.5,-131.406 123,-121.406 116,-121.406"/>
</g>
</g>
</svg>
