<?xml version="1.0" encoding="UTF-8" standalone="no"?>
<!DOCTYPE svg PUBLIC "-//W3C//DTD SVG 1.1//EN"
 "http://www.w3.org/Graphics/SVG/1.1/DTD/svg11.dtd">
<!-- Generated by graphviz version 2.38.0 (20140413.2041)
 -->
<!-- Title: parallel_rng::ParallelRngManager::resample_dist Pages: 1 -->
<svg width="282pt" height="37pt"
 viewBox="0.00 0.00 282.00 37.00" xmlns="http://www.w3.org/2000/svg" xmlns:xlink="http://www.w3.org/1999/xlink">
<g id="graph0" class="graph" transform="scale(1 1) rotate(0) translate(4 33)">
<title>parallel_rng::ParallelRngManager::resample_dist</title>
<polygon fill="white" stroke="none" points="-4,4 -4,-33 278,-33 278,4 -4,4"/>
<!-- Node1 -->
<g id="node1" class="node"><title>Node1</title>
<polygon fill="#bfbfbf" stroke="black" points="0,-0.5 0,-28.5 119,-28.5 119,-0.5 0,-0.5"/>
<text text-anchor="start" x="8" y="-17.3" font-family="Helvetica,sans-Serif" font-size="9.00">parallel_rng::ParallelRng</text>
<text text-anchor="middle" x="59.5" y="-7.3" font-family="Helvetica,sans-Serif" font-size="9.00">Manager::resample_dist</text>
</g>
<!-- Node2 -->
<g id="node2" class="node"><title>Node2</title>
<g id="a_node2"><a xlink:href="classparallel__rng_1_1ParallelRngManager.html#a00c61e3387693dce69cc8227a5114494" target="_top" xlink:title="parallel_rng::ParallelRng\lManager::generator">
<polygon fill="white" stroke="black" points="155,-0.5 155,-28.5 274,-28.5 274,-0.5 155,-0.5"/>
<text text-anchor="start" x="163" y="-17.3" font-family="Helvetica,sans-Serif" font-size="9.00">parallel_rng::ParallelRng</text>
<text text-anchor="middle" x="214.5" y="-7.3" font-family="Helvetica,sans-Serif" font-size="9.00">Manager::generator</text>
</a>
</g>
</g>
<!-- Node1&#45;&gt;Node2 -->
<g id="edge1" class="edge"><title>Node1&#45;&gt;Node2</title>
<path fill="none" stroke="midnightblue" d="M119.216,-14.5C127.544,-14.5 136.169,-14.5 144.667,-14.5"/>
<polygon fill="midnightblue" stroke="midnightblue" points="144.941,-18.0001 154.941,-14.5 144.941,-11.0001 144.941,-18.0001"/>
</g>
</g>
</svg>
