<?xml version="1.0" encoding="UTF-8" standalone="no"?>
<!DOCTYPE svg PUBLIC "-//W3C//DTD SVG 1.1//EN"
 "http://www.w3.org/Graphics/SVG/1.1/DTD/svg11.dtd">
<!-- Generated by graphviz version 2.36.0 (20140111.2315)
 -->
<!-- Title: ParallelRngManager.h Pages: 1 -->
<svg width="695pt" height="94pt"
 viewBox="0.00 0.00 695.00 94.00" xmlns="http://www.w3.org/2000/svg" xmlns:xlink="http://www.w3.org/1999/xlink">
<g id="graph0" class="graph" transform="scale(1 1) rotate(0) translate(4 90)">
<title>ParallelRngManager.h</title>
<polygon fill="white" stroke="none" points="-4,4 -4,-90 691,-90 691,4 -4,4"/>
<!-- Node1 -->
<g id="node1" class="node"><title>Node1</title>
<polygon fill="#bfbfbf" stroke="black" points="208,-67 208,-85 318,-85 318,-67 208,-67"/>
<text text-anchor="middle" x="263" y="-73.8" font-family="Helvetica,sans-Serif" font-size="9.00">ParallelRngManager.h</text>
</g>
<!-- Node2 -->
<g id="node2" class="node"><title>Node2</title>
<polygon fill="white" stroke="#bfbfbf" points="-0.5,-6 -0.5,-24 42.5,-24 42.5,-6 -0.5,-6"/>
<text text-anchor="middle" x="21" y="-12.8" font-family="Helvetica,sans-Serif" font-size="9.00">cstdint</text>
</g>
<!-- Node1&#45;&gt;Node2 -->
<g id="edge1" class="edge"><title>Node1&#45;&gt;Node2</title>
<path fill="none" stroke="midnightblue" d="M210.148,-66.9613C166.962,-59.6272 104.67,-47.2882 52,-30 50.1484,-29.3922 48.2591,-28.7085 46.3725,-27.9786"/>
<polygon fill="midnightblue" stroke="midnightblue" points="47.7236,-24.7499 37.1499,-24.0805 44.9983,-31.1976 47.7236,-24.7499"/>
</g>
<!-- Node3 -->
<g id="node3" class="node"><title>Node3</title>
<polygon fill="white" stroke="#bfbfbf" points="61,-6 61,-24 117,-24 117,-6 61,-6"/>
<text text-anchor="middle" x="89" y="-12.8" font-family="Helvetica,sans-Serif" font-size="9.00">exception</text>
</g>
<!-- Node1&#45;&gt;Node3 -->
<g id="edge2" class="edge"><title>Node1&#45;&gt;Node3</title>
<path fill="none" stroke="midnightblue" d="M237.383,-66.96C209.774,-58.2074 164.595,-43.6329 126,-30 123.76,-29.2087 121.449,-28.3756 119.129,-27.5264"/>
<polygon fill="midnightblue" stroke="midnightblue" points="120.276,-24.2192 109.684,-24.0114 117.835,-30.7796 120.276,-24.2192"/>
</g>
<!-- Node4 -->
<g id="node4" class="node"><title>Node4</title>
<polygon fill="white" stroke="#bfbfbf" points="135,-6 135,-24 191,-24 191,-6 135,-6"/>
<text text-anchor="middle" x="163" y="-12.8" font-family="Helvetica,sans-Serif" font-size="9.00">functional</text>
</g>
<!-- Node1&#45;&gt;Node4 -->
<g id="edge3" class="edge"><title>Node1&#45;&gt;Node4</title>
<path fill="none" stroke="midnightblue" d="M249.095,-66.7963C232.677,-57.1093 205.139,-40.8623 185.633,-29.3536"/>
<polygon fill="midnightblue" stroke="midnightblue" points="187.178,-26.2011 176.786,-24.134 183.621,-32.23 187.178,-26.2011"/>
</g>
<!-- Node5 -->
<g id="node5" class="node"><title>Node5</title>
<polygon fill="white" stroke="#bfbfbf" points="209,-6 209,-24 251,-24 251,-6 209,-6"/>
<text text-anchor="middle" x="230" y="-12.8" font-family="Helvetica,sans-Serif" font-size="9.00">omp.h</text>
</g>
<!-- Node1&#45;&gt;Node5 -->
<g id="edge4" class="edge"><title>Node1&#45;&gt;Node5</title>
<path fill="none" stroke="midnightblue" d="M258.411,-66.7963C253.535,-58.078 245.687,-44.0461 239.473,-32.9371"/>
<polygon fill="midnightblue" stroke="midnightblue" points="242.486,-31.1531 234.55,-24.134 236.376,-34.5702 242.486,-31.1531"/>
</g>
<!-- Node6 -->
<g id="node6" class="node"><title>Node6</title>
<polygon fill="white" stroke="#bfbfbf" points="269.5,-6 269.5,-24 324.5,-24 324.5,-6 269.5,-6"/>
<text text-anchor="middle" x="297" y="-12.8" font-family="Helvetica,sans-Serif" font-size="9.00">armadillo</text>
</g>
<!-- Node1&#45;&gt;Node6 -->
<g id="edge5" class="edge"><title>Node1&#45;&gt;Node6</title>
<path fill="none" stroke="midnightblue" d="M267.728,-66.7963C272.752,-58.078 280.838,-44.0461 287.24,-32.9371"/>
<polygon fill="midnightblue" stroke="midnightblue" points="290.352,-34.5459 292.313,-24.134 284.287,-31.0508 290.352,-34.5459"/>
</g>
<!-- Node7 -->
<g id="node7" class="node"><title>Node7</title>
<polygon fill="white" stroke="#bfbfbf" points="342.5,-6 342.5,-24 439.5,-24 439.5,-6 342.5,-6"/>
<text text-anchor="middle" x="391" y="-12.8" font-family="Helvetica,sans-Serif" font-size="9.00">trng/lcg64_shift.hpp</text>
</g>
<!-- Node1&#45;&gt;Node7 -->
<g id="edge6" class="edge"><title>Node1&#45;&gt;Node7</title>
<path fill="none" stroke="midnightblue" d="M280.529,-66.92C302.048,-57.0014 338.773,-40.0734 363.928,-28.4784"/>
<polygon fill="midnightblue" stroke="midnightblue" points="365.655,-31.5365 373.271,-24.1717 362.725,-25.1793 365.655,-31.5365"/>
</g>
<!-- Node8 -->
<g id="node8" class="node"><title>Node8</title>
<polygon fill="white" stroke="#bfbfbf" points="457,-1 457,-29 559,-29 559,-1 457,-1"/>
<text text-anchor="start" x="465" y="-17.8" font-family="Helvetica,sans-Serif" font-size="9.00">ParallelRngManager</text>
<text text-anchor="middle" x="508" y="-7.8" font-family="Helvetica,sans-Serif" font-size="9.00">/AnyRng/AnyRng.h</text>
</g>
<!-- Node1&#45;&gt;Node8 -->
<g id="edge7" class="edge"><title>Node1&#45;&gt;Node8</title>
<path fill="none" stroke="midnightblue" d="M296.297,-66.9816C334.895,-57.6865 399.3,-42.1767 446.957,-30.7002"/>
<polygon fill="midnightblue" stroke="midnightblue" points="447.954,-34.0602 456.857,-28.3161 446.315,-27.2547 447.954,-34.0602"/>
</g>
<!-- Node9 -->
<g id="node9" class="node"><title>Node9</title>
<polygon fill="white" stroke="#bfbfbf" points="577,-1 577,-29 687,-29 687,-1 577,-1"/>
<text text-anchor="start" x="585" y="-17.8" font-family="Helvetica,sans-Serif" font-size="9.00">ParallelRngManager</text>
<text text-anchor="middle" x="632" y="-7.8" font-family="Helvetica,sans-Serif" font-size="9.00">/AlignedArray/AArray.h</text>
</g>
<!-- Node1&#45;&gt;Node9 -->
<g id="edge8" class="edge"><title>Node1&#45;&gt;Node9</title>
<path fill="none" stroke="midnightblue" d="M318.095,-67.9438C377.047,-60.1469 473.509,-46.6817 566.836,-29.9492"/>
<polygon fill="midnightblue" stroke="midnightblue" points="567.513,-33.3837 576.73,-28.1606 566.267,-26.4953 567.513,-33.3837"/>
</g>
</g>
</svg>
