<?xml version="1.0" encoding="UTF-8" standalone="no"?>
<!DOCTYPE svg PUBLIC "-//W3C//DTD SVG 1.1//EN"
 "http://www.w3.org/Graphics/SVG/1.1/DTD/svg11.dtd">
<!-- Generated by graphviz version 2.38.0 (20140413.2041)
 -->
<!-- Title: ParallelRngManager.h Pages: 1 -->
<svg width="696pt" height="92pt"
 viewBox="0.00 0.00 695.50 92.00" xmlns="http://www.w3.org/2000/svg" xmlns:xlink="http://www.w3.org/1999/xlink">
<g id="graph0" class="graph" transform="scale(1 1) rotate(0) translate(4 88)">
<title>ParallelRngManager.h</title>
<polygon fill="white" stroke="none" points="-4,4 -4,-88 691.5,-88 691.5,4 -4,4"/>
<!-- Node1 -->
<g id="node1" class="node"><title>Node1</title>
<polygon fill="#bfbfbf" stroke="black" points="208.5,-65.5 208.5,-83.5 318.5,-83.5 318.5,-65.5 208.5,-65.5"/>
<text text-anchor="middle" x="263.5" y="-72.3" font-family="Helvetica,sans-Serif" font-size="9.00">ParallelRngManager.h</text>
</g>
<!-- Node2 -->
<g id="node2" class="node"><title>Node2</title>
<polygon fill="white" stroke="#bfbfbf" points="0,-5.5 0,-23.5 43,-23.5 43,-5.5 0,-5.5"/>
<text text-anchor="middle" x="21.5" y="-12.3" font-family="Helvetica,sans-Serif" font-size="9.00">cstdint</text>
</g>
<!-- Node1&#45;&gt;Node2 -->
<g id="edge1" class="edge"><title>Node1&#45;&gt;Node2</title>
<path fill="none" stroke="midnightblue" d="M210.706,-65.4272C167.554,-58.103 105.279,-45.865 52.5,-29 50.8854,-28.4841 49.2407,-27.9128 47.5931,-27.3052"/>
<polygon fill="midnightblue" stroke="midnightblue" points="48.8997,-24.0583 38.3166,-23.5608 46.2796,-30.5494 48.8997,-24.0583"/>
</g>
<!-- Node3 -->
<g id="node3" class="node"><title>Node3</title>
<polygon fill="white" stroke="#bfbfbf" points="61.5,-5.5 61.5,-23.5 117.5,-23.5 117.5,-5.5 61.5,-5.5"/>
<text text-anchor="middle" x="89.5" y="-12.3" font-family="Helvetica,sans-Serif" font-size="9.00">exception</text>
</g>
<!-- Node1&#45;&gt;Node3 -->
<g id="edge2" class="edge"><title>Node1&#45;&gt;Node3</title>
<path fill="none" stroke="midnightblue" d="M237.907,-65.4882C210.317,-56.7813 165.156,-42.3253 126.5,-29 124.658,-28.3649 122.767,-27.7039 120.861,-27.0306"/>
<polygon fill="midnightblue" stroke="midnightblue" points="121.961,-23.7067 111.366,-23.6251 119.598,-30.2958 121.961,-23.7067"/>
</g>
<!-- Node4 -->
<g id="node4" class="node"><title>Node4</title>
<polygon fill="white" stroke="#bfbfbf" points="135.5,-5.5 135.5,-23.5 191.5,-23.5 191.5,-5.5 135.5,-5.5"/>
<text text-anchor="middle" x="163.5" y="-12.3" font-family="Helvetica,sans-Serif" font-size="9.00">functional</text>
</g>
<!-- Node1&#45;&gt;Node4 -->
<g id="edge3" class="edge"><title>Node1&#45;&gt;Node4</title>
<path fill="none" stroke="midnightblue" d="M249.595,-65.4353C233.269,-55.9661 205.949,-40.1201 186.463,-28.8184"/>
<polygon fill="midnightblue" stroke="midnightblue" points="188.015,-25.6728 177.609,-23.6831 184.503,-31.728 188.015,-25.6728"/>
</g>
<!-- Node5 -->
<g id="node5" class="node"><title>Node5</title>
<polygon fill="white" stroke="#bfbfbf" points="209.5,-5.5 209.5,-23.5 251.5,-23.5 251.5,-5.5 209.5,-5.5"/>
<text text-anchor="middle" x="230.5" y="-12.3" font-family="Helvetica,sans-Serif" font-size="9.00">omp.h</text>
</g>
<!-- Node1&#45;&gt;Node5 -->
<g id="edge4" class="edge"><title>Node1&#45;&gt;Node5</title>
<path fill="none" stroke="midnightblue" d="M258.911,-65.4353C254.139,-57.0467 246.519,-43.6539 240.371,-32.8491"/>
<polygon fill="midnightblue" stroke="midnightblue" points="243.251,-30.8326 235.263,-23.8718 237.166,-34.2943 243.251,-30.8326"/>
</g>
<!-- Node6 -->
<g id="node6" class="node"><title>Node6</title>
<polygon fill="white" stroke="#bfbfbf" points="270,-5.5 270,-23.5 325,-23.5 325,-5.5 270,-5.5"/>
<text text-anchor="middle" x="297.5" y="-12.3" font-family="Helvetica,sans-Serif" font-size="9.00">armadillo</text>
</g>
<!-- Node1&#45;&gt;Node6 -->
<g id="edge5" class="edge"><title>Node1&#45;&gt;Node6</title>
<path fill="none" stroke="midnightblue" d="M268.228,-65.4353C273.195,-56.9611 281.157,-43.38 287.523,-32.5192"/>
<polygon fill="midnightblue" stroke="midnightblue" points="290.555,-34.2688 292.592,-23.8718 284.516,-30.7287 290.555,-34.2688"/>
</g>
<!-- Node7 -->
<g id="node7" class="node"><title>Node7</title>
<polygon fill="white" stroke="#bfbfbf" points="343,-5.5 343,-23.5 440,-23.5 440,-5.5 343,-5.5"/>
<text text-anchor="middle" x="391.5" y="-12.3" font-family="Helvetica,sans-Serif" font-size="9.00">trng/lcg64_shift.hpp</text>
</g>
<!-- Node1&#45;&gt;Node7 -->
<g id="edge6" class="edge"><title>Node1&#45;&gt;Node7</title>
<path fill="none" stroke="midnightblue" d="M281.298,-65.4353C302.766,-55.7078 339.084,-39.2511 364.126,-27.9041"/>
<polygon fill="midnightblue" stroke="midnightblue" points="365.777,-30.9985 373.441,-23.6831 362.888,-24.6225 365.777,-30.9985"/>
</g>
<!-- Node8 -->
<g id="node8" class="node"><title>Node8</title>
<polygon fill="white" stroke="#bfbfbf" points="457.5,-0.5 457.5,-28.5 559.5,-28.5 559.5,-0.5 457.5,-0.5"/>
<text text-anchor="start" x="465.5" y="-17.3" font-family="Helvetica,sans-Serif" font-size="9.00">ParallelRngManager</text>
<text text-anchor="middle" x="508.5" y="-7.3" font-family="Helvetica,sans-Serif" font-size="9.00">/AnyRng/AnyRng.h</text>
</g>
<!-- Node1&#45;&gt;Node8 -->
<g id="edge7" class="edge"><title>Node1&#45;&gt;Node8</title>
<path fill="none" stroke="midnightblue" d="M297.309,-65.4962C335.913,-56.3573 399.845,-41.2225 447.273,-29.9946"/>
<polygon fill="midnightblue" stroke="midnightblue" points="448.203,-33.3712 457.128,-27.6616 446.59,-26.5595 448.203,-33.3712"/>
</g>
<!-- Node9 -->
<g id="node9" class="node"><title>Node9</title>
<polygon fill="white" stroke="#bfbfbf" points="577.5,-0.5 577.5,-28.5 687.5,-28.5 687.5,-0.5 577.5,-0.5"/>
<text text-anchor="start" x="585.5" y="-17.3" font-family="Helvetica,sans-Serif" font-size="9.00">ParallelRngManager</text>
<text text-anchor="middle" x="632.5" y="-7.3" font-family="Helvetica,sans-Serif" font-size="9.00">/AlignedArray/AArray.h</text>
</g>
<!-- Node1&#45;&gt;Node9 -->
<g id="edge8" class="edge"><title>Node1&#45;&gt;Node9</title>
<path fill="none" stroke="midnightblue" d="M318.768,-66.5018C377.846,-58.7822 474.483,-45.4707 567.261,-29.1517"/>
<polygon fill="midnightblue" stroke="midnightblue" points="568.15,-32.5487 577.385,-27.356 566.927,-25.6563 568.15,-32.5487"/>
</g>
</g>
</svg>
