<?xml version="1.0" encoding="UTF-8" standalone="no"?>
<!DOCTYPE svg PUBLIC "-//W3C//DTD SVG 1.1//EN"
 "http://www.w3.org/Graphics/SVG/1.1/DTD/svg11.dtd">
<!-- Generated by graphviz version 2.38.0 (20140413.2041)
 -->
<!-- Title: ParallelRngManager.cpp Pages: 1 -->
<svg width="753pt" height="157pt"
 viewBox="0.00 0.00 753.00 157.00" xmlns="http://www.w3.org/2000/svg" xmlns:xlink="http://www.w3.org/1999/xlink">
<g id="graph0" class="graph" transform="scale(1 1) rotate(0) translate(4 153)">
<title>ParallelRngManager.cpp</title>
<polygon fill="white" stroke="none" points="-4,4 -4,-153 749,-153 749,4 -4,4"/>
<!-- Node1 -->
<g id="node1" class="node"><title>Node1</title>
<polygon fill="#bfbfbf" stroke="black" points="53.5,-130.5 53.5,-148.5 172.5,-148.5 172.5,-130.5 53.5,-130.5"/>
<text text-anchor="middle" x="113" y="-137.3" font-family="Helvetica,sans-Serif" font-size="9.00">ParallelRngManager.cpp</text>
</g>
<!-- Node2 -->
<g id="node2" class="node"><title>Node2</title>
<polygon fill="white" stroke="#bfbfbf" points="0,-70.5 0,-88.5 48,-88.5 48,-70.5 0,-70.5"/>
<text text-anchor="middle" x="24" y="-77.3" font-family="Helvetica,sans-Serif" font-size="9.00">random</text>
</g>
<!-- Node1&#45;&gt;Node2 -->
<g id="edge1" class="edge"><title>Node1&#45;&gt;Node2</title>
<path fill="none" stroke="midnightblue" d="M100.625,-130.435C86.3587,-121.138 62.6601,-105.694 45.3896,-94.4393"/>
<polygon fill="midnightblue" stroke="midnightblue" points="46.8458,-91.2107 36.5569,-88.6831 43.0239,-97.0753 46.8458,-91.2107"/>
</g>
<!-- Node3 -->
<g id="node3" class="node"><title>Node3</title>
<polygon fill="white" stroke="#bfbfbf" points="66.5,-70.5 66.5,-88.5 109.5,-88.5 109.5,-70.5 66.5,-70.5"/>
<text text-anchor="middle" x="88" y="-77.3" font-family="Helvetica,sans-Serif" font-size="9.00">thread</text>
</g>
<!-- Node1&#45;&gt;Node3 -->
<g id="edge2" class="edge"><title>Node1&#45;&gt;Node3</title>
<path fill="none" stroke="midnightblue" d="M109.524,-130.435C105.945,-122.132 100.253,-108.927 95.621,-98.1807"/>
<polygon fill="midnightblue" stroke="midnightblue" points="98.781,-96.6696 91.6085,-88.8718 92.3527,-99.4404 98.781,-96.6696"/>
</g>
<!-- Node4 -->
<g id="node4" class="node"><title>Node4</title>
<polygon fill="white" stroke="#bfbfbf" points="57,-5.5 57,-23.5 99,-23.5 99,-5.5 57,-5.5"/>
<text text-anchor="middle" x="78" y="-12.3" font-family="Helvetica,sans-Serif" font-size="9.00">omp.h</text>
</g>
<!-- Node1&#45;&gt;Node4 -->
<g id="edge3" class="edge"><title>Node1&#45;&gt;Node4</title>
<path fill="none" stroke="midnightblue" d="M115.772,-130.49C120.099,-116.669 127.16,-87.644 119,-65 114.26,-51.8464 104.338,-39.7107 95.4425,-30.7476"/>
<polygon fill="midnightblue" stroke="midnightblue" points="97.7126,-28.0769 88.0453,-23.7417 92.8991,-33.1593 97.7126,-28.0769"/>
</g>
<!-- Node5 -->
<g id="node5" class="node"><title>Node5</title>
<g id="a_node5"><a xlink:href="ParallelRngManager_8h.html" target="_top" xlink:title="Adapts TRNG parallel RNG to armadillo, maintaining a per&#45;thread RNG. ">
<polygon fill="white" stroke="black" points="225,-65.5 225,-93.5 337,-93.5 337,-65.5 225,-65.5"/>
<text text-anchor="start" x="233" y="-82.3" font-family="Helvetica,sans-Serif" font-size="9.00">ParallelRngManager</text>
<text text-anchor="middle" x="281" y="-72.3" font-family="Helvetica,sans-Serif" font-size="9.00">/ParallelRngManager.h</text>
</a>
</g>
</g>
<!-- Node1&#45;&gt;Node5 -->
<g id="edge4" class="edge"><title>Node1&#45;&gt;Node5</title>
<path fill="none" stroke="midnightblue" d="M136.36,-130.435C161.444,-121.775 201.976,-107.782 233.761,-96.8088"/>
<polygon fill="midnightblue" stroke="midnightblue" points="235.007,-100.081 243.317,-93.5096 232.722,-93.4646 235.007,-100.081"/>
</g>
<!-- Node5&#45;&gt;Node4 -->
<g id="edge8" class="edge"><title>Node5&#45;&gt;Node4</title>
<path fill="none" stroke="midnightblue" d="M228.882,-65.3999C194.482,-56.2902 148.616,-43.258 109,-29 107.619,-28.503 106.212,-27.9744 104.798,-27.425"/>
<polygon fill="midnightblue" stroke="midnightblue" points="106.124,-24.186 95.5446,-23.6139 103.458,-30.6585 106.124,-24.186"/>
</g>
<!-- Node6 -->
<g id="node6" class="node"><title>Node6</title>
<polygon fill="white" stroke="#bfbfbf" points="117.5,-5.5 117.5,-23.5 160.5,-23.5 160.5,-5.5 117.5,-5.5"/>
<text text-anchor="middle" x="139" y="-12.3" font-family="Helvetica,sans-Serif" font-size="9.00">cstdint</text>
</g>
<!-- Node5&#45;&gt;Node6 -->
<g id="edge5" class="edge"><title>Node5&#45;&gt;Node6</title>
<path fill="none" stroke="midnightblue" d="M251.578,-65.4464C226.588,-54.3595 190.989,-38.5654 166.549,-27.7225"/>
<polygon fill="midnightblue" stroke="midnightblue" points="167.7,-24.4042 157.14,-23.548 164.861,-30.8027 167.7,-24.4042"/>
</g>
<!-- Node7 -->
<g id="node7" class="node"><title>Node7</title>
<polygon fill="white" stroke="#bfbfbf" points="179,-5.5 179,-23.5 235,-23.5 235,-5.5 179,-5.5"/>
<text text-anchor="middle" x="207" y="-12.3" font-family="Helvetica,sans-Serif" font-size="9.00">exception</text>
</g>
<!-- Node5&#45;&gt;Node7 -->
<g id="edge6" class="edge"><title>Node5&#45;&gt;Node7</title>
<path fill="none" stroke="midnightblue" d="M265.667,-65.4464C253.697,-55.2557 237.056,-41.0881 224.553,-30.444"/>
<polygon fill="midnightblue" stroke="midnightblue" points="226.55,-27.5476 216.667,-23.7301 222.013,-32.8776 226.55,-27.5476"/>
</g>
<!-- Node8 -->
<g id="node8" class="node"><title>Node8</title>
<polygon fill="white" stroke="#bfbfbf" points="253,-5.5 253,-23.5 309,-23.5 309,-5.5 253,-5.5"/>
<text text-anchor="middle" x="281" y="-12.3" font-family="Helvetica,sans-Serif" font-size="9.00">functional</text>
</g>
<!-- Node5&#45;&gt;Node8 -->
<g id="edge7" class="edge"><title>Node5&#45;&gt;Node8</title>
<path fill="none" stroke="midnightblue" d="M281,-65.4464C281,-56.3336 281,-44.0406 281,-33.9308"/>
<polygon fill="midnightblue" stroke="midnightblue" points="284.5,-33.7301 281,-23.7301 277.5,-33.7301 284.5,-33.7301"/>
</g>
<!-- Node9 -->
<g id="node9" class="node"><title>Node9</title>
<polygon fill="white" stroke="#bfbfbf" points="327.5,-5.5 327.5,-23.5 382.5,-23.5 382.5,-5.5 327.5,-5.5"/>
<text text-anchor="middle" x="355" y="-12.3" font-family="Helvetica,sans-Serif" font-size="9.00">armadillo</text>
</g>
<!-- Node5&#45;&gt;Node9 -->
<g id="edge9" class="edge"><title>Node5&#45;&gt;Node9</title>
<path fill="none" stroke="midnightblue" d="M296.333,-65.4464C308.303,-55.2557 324.944,-41.0881 337.447,-30.444"/>
<polygon fill="midnightblue" stroke="midnightblue" points="339.987,-32.8776 345.333,-23.7301 335.45,-27.5476 339.987,-32.8776"/>
</g>
<!-- Node10 -->
<g id="node10" class="node"><title>Node10</title>
<polygon fill="white" stroke="#bfbfbf" points="400.5,-5.5 400.5,-23.5 497.5,-23.5 497.5,-5.5 400.5,-5.5"/>
<text text-anchor="middle" x="449" y="-12.3" font-family="Helvetica,sans-Serif" font-size="9.00">trng/lcg64_shift.hpp</text>
</g>
<!-- Node5&#45;&gt;Node10 -->
<g id="edge10" class="edge"><title>Node5&#45;&gt;Node10</title>
<path fill="none" stroke="midnightblue" d="M315.81,-65.4464C345.9,-54.1624 388.994,-38.0023 417.936,-27.1489"/>
<polygon fill="midnightblue" stroke="midnightblue" points="419.404,-30.3364 427.539,-23.548 416.946,-23.7821 419.404,-30.3364"/>
</g>
<!-- Node11 -->
<g id="node11" class="node"><title>Node11</title>
<polygon fill="white" stroke="#bfbfbf" points="515,-0.5 515,-28.5 617,-28.5 617,-0.5 515,-0.5"/>
<text text-anchor="start" x="523" y="-17.3" font-family="Helvetica,sans-Serif" font-size="9.00">ParallelRngManager</text>
<text text-anchor="middle" x="566" y="-7.3" font-family="Helvetica,sans-Serif" font-size="9.00">/AnyRng/AnyRng.h</text>
</g>
<!-- Node5&#45;&gt;Node11 -->
<g id="edge11" class="edge"><title>Node5&#45;&gt;Node11</title>
<path fill="none" stroke="midnightblue" d="M337.222,-66.3381C380.645,-56.9103 442.514,-43.4023 504.836,-29.4751"/>
<polygon fill="midnightblue" stroke="midnightblue" points="505.845,-32.8359 514.84,-27.2368 504.317,-26.0048 505.845,-32.8359"/>
</g>
<!-- Node12 -->
<g id="node12" class="node"><title>Node12</title>
<polygon fill="white" stroke="#bfbfbf" points="635,-0.5 635,-28.5 745,-28.5 745,-0.5 635,-0.5"/>
<text text-anchor="start" x="643" y="-17.3" font-family="Helvetica,sans-Serif" font-size="9.00">ParallelRngManager</text>
<text text-anchor="middle" x="690" y="-7.3" font-family="Helvetica,sans-Serif" font-size="9.00">/AlignedArray/AArray.h</text>
</g>
<!-- Node5&#45;&gt;Node12 -->
<g id="edge12" class="edge"><title>Node5&#45;&gt;Node12</title>
<path fill="none" stroke="midnightblue" d="M337.05,-71.6031C403.387,-63.1847 517.395,-47.9162 624.844,-29.1336"/>
<polygon fill="midnightblue" stroke="midnightblue" points="625.645,-32.5464 634.887,-27.3643 624.431,-25.6526 625.645,-32.5464"/>
</g>
</g>
</svg>
