<?xml version="1.0" encoding="UTF-8" standalone="no"?>
<!DOCTYPE svg PUBLIC "-//W3C//DTD SVG 1.1//EN"
 "http://www.w3.org/Graphics/SVG/1.1/DTD/svg11.dtd">
<!-- Generated by graphviz version 2.36.0 (20140111.2315)
 -->
<!-- Title: ParallelRngManager.cpp Pages: 1 -->
<!--zoomable 160 -->
<svg id="main" version="1.1" xmlns="http://www.w3.org/2000/svg" xmlns:xlink="http://www.w3.org/1999/xlink" xml:space="preserve" onload="init(evt)">
<style type="text/css"><![CDATA[
.edge:hover path { stroke: red; }
.edge:hover polygon { stroke: red; fill: red; }
]]></style>
<script type="text/javascript"><![CDATA[
var edges = document.getElementsByTagName('g');
if (edges && edges.length) {
  for (var i=0;i<edges.length;i++) {
    if (edges[i].id.substr(0,4)=='edge') {
      edges[i].setAttribute('class','edge');
    }
  }
}
]]></script>
        <defs>
                <circle id="rim" cx="0" cy="0" r="7"/>
                <circle id="rim2" cx="0" cy="0" r="3.5"/>
                <g id="zoomPlus">
                        <use xlink:href="#rim" fill="#404040">
                                <set attributeName="fill" to="#808080" begin="zoomplus.mouseover" end="zoomplus.mouseout"/>
                        </use>
                        <path d="M-4,0h8M0,-4v8" fill="none" stroke="white" stroke-width="1.5" pointer-events="none"/>
                </g>
                <g id="zoomMin">
                        <use xlink:href="#rim" fill="#404040">
                                <set attributeName="fill" to="#808080" begin="zoomminus.mouseover" end="zoomminus.mouseout"/>
                        </use>
                        <path d="M-4,0h8" fill="none" stroke="white" stroke-width="1.5" pointer-events="none"/>
                </g>
                <g id="dirArrow">
                        <path fill="none" stroke="white" stroke-width="1.5" d="M0,-3.0v7 M-2.5,-0.5L0,-3.0L2.5,-0.5"/>
                </g>
               <g id="resetDef">
                       <use xlink:href="#rim2" fill="#404040">
                               <set attributeName="fill" to="#808080" begin="reset.mouseover" end="reset.mouseout"/>
                       </use>
               </g>
        </defs>

<script type="text/javascript">
var viewWidth = 753;
var viewHeight = 160;
var sectionId = 'dynsection-0';
</script>
<script xlink:href="svgpan.js"/>
<svg id="graph" class="graph">
<g id="viewport">
<title>ParallelRngManager.cpp</title>
<polygon fill="white" stroke="none" points="-4,4 -4,-156 749,-156 749,4 -4,4"/>
<!-- Node1 -->
<g id="node1" class="node"><title>Node1</title>
<polygon fill="#bfbfbf" stroke="black" points="53.5,-133 53.5,-151 172.5,-151 172.5,-133 53.5,-133"/>
<text text-anchor="middle" x="113" y="-139.8" font-family="Helvetica,sans-Serif" font-size="9.00">ParallelRngManager.cpp</text>
</g>
<!-- Node2 -->
<g id="node2" class="node"><title>Node2</title>
<polygon fill="white" stroke="#bfbfbf" points="0,-72 0,-90 48,-90 48,-72 0,-72"/>
<text text-anchor="middle" x="24" y="-78.8" font-family="Helvetica,sans-Serif" font-size="9.00">random</text>
</g>
<!-- Node1&#45;&gt;Node2 -->
<g id="edge1" class="edge"><title>Node1&#45;&gt;Node2</title>
<path fill="none" stroke="midnightblue" d="M100.625,-132.796C86.1452,-123.197 61.9489,-107.157 44.6188,-95.6686"/>
<polygon fill="midnightblue" stroke="midnightblue" points="46.5388,-92.7422 36.27,-90.134 42.671,-98.5767 46.5388,-92.7422"/>
</g>
<!-- Node3 -->
<g id="node3" class="node"><title>Node3</title>
<polygon fill="white" stroke="#bfbfbf" points="66.5,-72 66.5,-90 109.5,-90 109.5,-72 66.5,-72"/>
<text text-anchor="middle" x="88" y="-78.8" font-family="Helvetica,sans-Serif" font-size="9.00">thread</text>
</g>
<!-- Node1&#45;&gt;Node3 -->
<g id="edge2" class="edge"><title>Node1&#45;&gt;Node3</title>
<path fill="none" stroke="midnightblue" d="M109.524,-132.796C105.904,-124.254 100.123,-110.611 95.4635,-99.6138"/>
<polygon fill="midnightblue" stroke="midnightblue" points="98.5708,-97.976 91.4466,-90.134 92.1255,-100.707 98.5708,-97.976"/>
</g>
<!-- Node4 -->
<g id="node4" class="node"><title>Node4</title>
<polygon fill="white" stroke="#bfbfbf" points="57,-6 57,-24 99,-24 99,-6 57,-6"/>
<text text-anchor="middle" x="78" y="-12.8" font-family="Helvetica,sans-Serif" font-size="9.00">omp.h</text>
</g>
<!-- Node1&#45;&gt;Node4 -->
<g id="edge3" class="edge"><title>Node1&#45;&gt;Node4</title>
<path fill="none" stroke="midnightblue" d="M115.59,-132.836C119.618,-118.747 126.121,-89.1505 118,-66 113.333,-52.6942 103.47,-40.2989 94.7069,-31.1783"/>
<polygon fill="midnightblue" stroke="midnightblue" points="97.0395,-28.5638 87.4469,-24.0657 92.1408,-33.5641 97.0395,-28.5638"/>
</g>
<!-- Node5 -->
<g id="node5" class="node"><title>Node5</title>
<g id="a_node5"><a xlink:href="ParallelRngManager_8h.html" target="_top" xlink:title="Adapts TRNG parallel RNG to armadillo, maintaining a per&#45;thread RNG. ">
<polygon fill="white" stroke="black" points="225,-67 225,-95 337,-95 337,-67 225,-67"/>
<text text-anchor="start" x="233" y="-83.8" font-family="Helvetica,sans-Serif" font-size="9.00">ParallelRngManager</text>
<text text-anchor="middle" x="281" y="-73.8" font-family="Helvetica,sans-Serif" font-size="9.00">/ParallelRngManager.h</text>
</a>
</g>
</g>
<!-- Node1&#45;&gt;Node5 -->
<g id="edge4" class="edge"><title>Node1&#45;&gt;Node5</title>
<path fill="none" stroke="midnightblue" d="M136.007,-132.92C161.172,-124.082 202.183,-109.68 234.178,-98.4433"/>
<polygon fill="midnightblue" stroke="midnightblue" points="235.516,-101.683 243.791,-95.0674 233.196,-95.0787 235.516,-101.683"/>
</g>
<!-- Node5&#45;&gt;Node4 -->
<g id="edge8" class="edge"><title>Node5&#45;&gt;Node4</title>
<path fill="none" stroke="midnightblue" d="M229.206,-66.9929C194.74,-57.8389 148.676,-44.6428 109,-30 107.4,-29.4096 105.767,-28.7743 104.128,-28.1117"/>
<polygon fill="midnightblue" stroke="midnightblue" points="105.445,-24.8682 94.8752,-24.1413 102.685,-31.301 105.445,-24.8682"/>
</g>
<!-- Node6 -->
<g id="node6" class="node"><title>Node6</title>
<polygon fill="white" stroke="#bfbfbf" points="117.5,-6 117.5,-24 160.5,-24 160.5,-6 117.5,-6"/>
<text text-anchor="middle" x="139" y="-12.8" font-family="Helvetica,sans-Serif" font-size="9.00">cstdint</text>
</g>
<!-- Node5&#45;&gt;Node6 -->
<g id="edge5" class="edge"><title>Node5&#45;&gt;Node6</title>
<path fill="none" stroke="midnightblue" d="M251.783,-66.8485C229.397,-56.7695 197.744,-42.5134 170,-30 168.819,-29.4674 167.613,-28.9232 166.394,-28.3734"/>
<polygon fill="midnightblue" stroke="midnightblue" points="167.585,-25.0706 157.03,-24.1462 164.705,-31.4507 167.585,-25.0706"/>
</g>
<!-- Node7 -->
<g id="node7" class="node"><title>Node7</title>
<polygon fill="white" stroke="#bfbfbf" points="179,-6 179,-24 235,-24 235,-6 179,-6"/>
<text text-anchor="middle" x="207" y="-12.8" font-family="Helvetica,sans-Serif" font-size="9.00">exception</text>
</g>
<!-- Node5&#45;&gt;Node7 -->
<g id="edge6" class="edge"><title>Node5&#45;&gt;Node7</title>
<path fill="none" stroke="midnightblue" d="M265.667,-66.7392C253.697,-56.3868 237.056,-41.9943 224.553,-31.1812"/>
<polygon fill="midnightblue" stroke="midnightblue" points="226.52,-28.255 216.667,-24.3607 221.941,-33.5496 226.52,-28.255"/>
</g>
<!-- Node8 -->
<g id="node8" class="node"><title>Node8</title>
<polygon fill="white" stroke="#bfbfbf" points="253,-6 253,-24 309,-24 309,-6 253,-6"/>
<text text-anchor="middle" x="281" y="-12.8" font-family="Helvetica,sans-Serif" font-size="9.00">functional</text>
</g>
<!-- Node5&#45;&gt;Node8 -->
<g id="edge7" class="edge"><title>Node5&#45;&gt;Node8</title>
<path fill="none" stroke="midnightblue" d="M281,-66.7392C281,-57.3822 281,-44.7247 281,-34.3929"/>
<polygon fill="midnightblue" stroke="midnightblue" points="284.5,-34.3607 281,-24.3607 277.5,-34.3608 284.5,-34.3607"/>
</g>
<!-- Node9 -->
<g id="node9" class="node"><title>Node9</title>
<polygon fill="white" stroke="#bfbfbf" points="327.5,-6 327.5,-24 382.5,-24 382.5,-6 327.5,-6"/>
<text text-anchor="middle" x="355" y="-12.8" font-family="Helvetica,sans-Serif" font-size="9.00">armadillo</text>
</g>
<!-- Node5&#45;&gt;Node9 -->
<g id="edge9" class="edge"><title>Node5&#45;&gt;Node9</title>
<path fill="none" stroke="midnightblue" d="M296.333,-66.7392C308.303,-56.3868 324.944,-41.9943 337.447,-31.1812"/>
<polygon fill="midnightblue" stroke="midnightblue" points="340.059,-33.5496 345.333,-24.3607 335.48,-28.255 340.059,-33.5496"/>
</g>
<!-- Node10 -->
<g id="node10" class="node"><title>Node10</title>
<polygon fill="white" stroke="#bfbfbf" points="400.5,-6 400.5,-24 497.5,-24 497.5,-6 400.5,-6"/>
<text text-anchor="middle" x="449" y="-12.8" font-family="Helvetica,sans-Serif" font-size="9.00">trng/lcg64_shift.hpp</text>
</g>
<!-- Node5&#45;&gt;Node10 -->
<g id="edge10" class="edge"><title>Node5&#45;&gt;Node10</title>
<path fill="none" stroke="midnightblue" d="M315.403,-66.8942C345.63,-55.3791 389.206,-38.7785 418.281,-27.7026"/>
<polygon fill="midnightblue" stroke="midnightblue" points="419.815,-30.8635 427.914,-24.0328 417.323,-24.3221 419.815,-30.8635"/>
</g>
<!-- Node11 -->
<g id="node11" class="node"><title>Node11</title>
<polygon fill="white" stroke="#bfbfbf" points="515,-1 515,-29 617,-29 617,-1 515,-1"/>
<text text-anchor="start" x="523" y="-17.8" font-family="Helvetica,sans-Serif" font-size="9.00">ParallelRngManager</text>
<text text-anchor="middle" x="566" y="-7.8" font-family="Helvetica,sans-Serif" font-size="9.00">/AnyRng/AnyRng.h</text>
</g>
<!-- Node5&#45;&gt;Node11 -->
<g id="edge11" class="edge"><title>Node5&#45;&gt;Node11</title>
<path fill="none" stroke="midnightblue" d="M337.442,-67.6304C380.659,-58.1196 442.028,-44.5293 504.853,-30.2487"/>
<polygon fill="midnightblue" stroke="midnightblue" points="505.972,-33.5836 514.945,-27.9514 504.418,-26.7582 505.972,-33.5836"/>
</g>
<!-- Node12 -->
<g id="node12" class="node"><title>Node12</title>
<polygon fill="white" stroke="#bfbfbf" points="635,-1 635,-29 745,-29 745,-1 635,-1"/>
<text text-anchor="start" x="643" y="-17.8" font-family="Helvetica,sans-Serif" font-size="9.00">ParallelRngManager</text>
<text text-anchor="middle" x="690" y="-7.8" font-family="Helvetica,sans-Serif" font-size="9.00">/AlignedArray/AArray.h</text>
</g>
<!-- Node5&#45;&gt;Node12 -->
<g id="edge12" class="edge"><title>Node5&#45;&gt;Node12</title>
<path fill="none" stroke="midnightblue" d="M337.198,-73.0215C403.398,-64.5352 516.898,-49.1568 624.658,-29.9778"/>
<polygon fill="midnightblue" stroke="midnightblue" points="625.507,-33.3814 634.732,-28.1705 624.271,-26.4914 625.507,-33.3814"/>
</g>
</g>
</svg>
        <g id="navigator" transform="translate(0 0)" fill="#404254">
                <rect fill="#f2f5e9" fill-opacity="0.5" stroke="#606060" stroke-width=".5" x="0" y="0" width="60" height="60"/>
                <use id="zoomplus" xlink:href="#zoomPlus" x="17" y="9" onmousedown="handleZoom(evt,'in')"/>
                <use id="zoomminus" xlink:href="#zoomMin" x="42" y="9" onmousedown="handleZoom(evt,'out')"/>
                <use id="reset" xlink:href="#resetDef" x="30" y="36" onmousedown="handleReset()"/>
                <g id="arrowUp" xlink:href="#dirArrow" transform="translate(30 24)" onmousedown="handlePan(0,-1)">
                  <use xlink:href="#rim" fill="#404040">
                        <set attributeName="fill" to="#808080" begin="arrowUp.mouseover" end="arrowUp.mouseout"/>
                  </use>
                  <path fill="none" stroke="white" stroke-width="1.5" d="M0,-3.0v7 M-2.5,-0.5L0,-3.0L2.5,-0.5"/>
                </g>
                <g id="arrowRight" xlink:href="#dirArrow" transform="rotate(90) translate(36 -43)" onmousedown="handlePan(1,0)">
                  <use xlink:href="#rim" fill="#404040">
                        <set attributeName="fill" to="#808080" begin="arrowRight.mouseover" end="arrowRight.mouseout"/>
                  </use>
                  <path fill="none" stroke="white" stroke-width="1.5" d="M0,-3.0v7 M-2.5,-0.5L0,-3.0L2.5,-0.5"/>
                </g>
                <g id="arrowDown" xlink:href="#dirArrow" transform="rotate(180) translate(-30 -48)" onmousedown="handlePan(0,1)">
                  <use xlink:href="#rim" fill="#404040">
                        <set attributeName="fill" to="#808080" begin="arrowDown.mouseover" end="arrowDown.mouseout"/>
                  </use>
                  <path fill="none" stroke="white" stroke-width="1.5" d="M0,-3.0v7 M-2.5,-0.5L0,-3.0L2.5,-0.5"/>
                </g>
                <g id="arrowLeft" xlink:href="#dirArrow" transform="rotate(270) translate(-36 17)" onmousedown="handlePan(-1,0)">
                  <use xlink:href="#rim" fill="#404040">
                        <set attributeName="fill" to="#808080" begin="arrowLeft.mouseover" end="arrowLeft.mouseout"/>
                  </use>
                  <path fill="none" stroke="white" stroke-width="1.5" d="M0,-3.0v7 M-2.5,-0.5L0,-3.0L2.5,-0.5"/>
                </g>
        </g>
        <svg viewBox="0 0 15 15" width="100%" height="30px" preserveAspectRatio="xMaxYMin meet">
         <g id="arrow_out" transform="scale(0.3 0.3)">
          <a xlink:href="ParallelRngManager_8cpp__incl_org.svg" target="_base">
           <rect id="button" ry="5" rx="5" y="6" x="6" height="38" width="38"
                fill="#f2f5e9" fill-opacity="0.5" stroke="#606060" stroke-width="1.0"/>
           <path id="arrow"
             d="M 11.500037,31.436501 C 11.940474,20.09759 22.043105,11.32322 32.158766,21.979434 L 37.068811,17.246167 C 37.068811,17.246167 37.088388,32 37.088388,32 L 22.160133,31.978069 C 22.160133,31.978069 26.997745,27.140456 26.997745,27.140456 C 18.528582,18.264221 13.291696,25.230495 11.500037,31.436501 z"
             style="fill:#404040;"/>
          </a>
         </g>
        </svg>
</svg>
